<?xml version="1.0" encoding="iso-8859-1"?>
<!-- Uploaded to: SVG Repo, www.svgrepo.com, Generator: SVG Repo Mixer Tools -->
<svg fill="#000000" height="800px" width="800px" version="1.1" id="Layer_1" xmlns="http://www.w3.org/2000/svg" xmlns:xlink="http://www.w3.org/1999/xlink" 
	 viewBox="0 0 512 512" xml:space="preserve">
<g>
	<g>
		<path d="M201.53,236.425c-10.753-10.752-28.249-10.752-39.002,0c-10.752,10.753-10.752,28.249,0,39.002
			c5.376,5.376,12.439,8.065,19.501,8.065c7.062,0,14.125-2.689,19.501-8.065C212.282,264.673,212.282,247.178,201.53,236.425z
			 M187.107,261.002c-2.799,2.8-7.355,2.8-10.153,0c-2.802-2.799-2.802-7.354-0.001-10.153c1.399-1.4,3.238-2.1,5.077-2.1
			s3.677,0.7,5.077,2.1C189.907,253.648,189.907,258.202,187.107,261.002z"/>
	</g>
</g>
<g>
	<g>
		<path d="M201.53,38.641c-10.753-10.752-28.249-10.752-39.002,0c-10.752,10.753-10.752,28.249,0,39.002
			c5.376,5.376,12.439,8.065,19.501,8.065c7.062,0,14.125-2.689,19.501-8.065C212.282,66.889,212.282,49.394,201.53,38.641z
			 M187.107,63.219c-2.799,2.8-7.355,2.8-10.153,0c-2.801-2.8-2.801-7.355-0.001-10.153c1.399-1.4,3.238-2.1,5.077-2.1
			s3.677,0.7,5.077,2.1C189.907,55.865,189.907,60.419,187.107,63.219z"/>
	</g>
</g>
<g>
	<g>
		<path d="M166.6,137.837c-5.633,0-10.199,4.566-10.199,10.199v58.645c0,5.633,4.566,10.199,10.199,10.199
			c5.633,0,10.199-4.566,10.199-10.199v-58.645C176.799,142.403,172.233,137.837,166.6,137.837z"/>
	</g>
</g>
<g>
	<g>
		<path d="M166.6,101.018c-5.633,0-10.199,4.566-10.199,10.199v6.818c0,5.633,4.566,10.199,10.199,10.199
			c5.633,0,10.199-4.566,10.199-10.199v-6.818C176.799,105.584,172.233,101.018,166.6,101.018z"/>
	</g>
</g>
<g>
	<g>
		<path d="M423.669,140.579v-40.58c18.258-4.57,31.824-21.11,31.824-40.764c0-23.171-18.851-42.022-42.023-42.022
			c-19.509,0-35.952,13.364-40.664,31.418H237.495C233.891,21.228,210.4,0,182.029,0c-30.857,0-55.96,25.103-55.96,55.96v142.675
			c-23.539,17.622-37.466,45.247-37.466,74.806v115.674h-2.74c-5.633,0-10.199,4.566-10.199,10.199v26.825
			c0,4.668,3.139,8.594,7.419,9.806l-9.258,19.201H51.342c-5.633,0-10.199,4.566-10.199,10.199v36.456
			c0,5.633,4.566,10.199,10.199,10.199h261.376c5.633,0,10.199-4.566,10.199-10.199v-36.455c0-5.633-4.566-10.199-10.199-10.199
			h-22.483l-9.258-19.201c4.28-1.212,7.419-5.137,7.419-9.805v-26.825c0-5.633-4.566-10.199-10.199-10.199h-2.74V273.442
			c0-29.484-13.945-57.193-37.467-74.811V69.029h134.622c3.639,15.182,15.533,27.185,30.659,30.971v40.646
			c-26.601,4.9-46.821,28.247-46.821,56.244v76.449h-0.001c0,5.633,4.566,10.199,10.199,10.199h32.022
			c5.633,0,10.199-4.566,10.199-10.199V218.99h9.179v54.348c0,5.633,4.566,10.199,10.199,10.199h32.41
			c5.633,0,10.199-4.566,10.199-10.199v-76.451C470.857,168.762,450.45,145.331,423.669,140.579z M146.468,55.96
			c0-19.609,15.954-35.562,35.562-35.562c19.608,0,35.562,15.953,35.562,35.562v200.527c0,19.609-15.954,35.562-35.562,35.562
			c-19.608,0-35.562-15.954-35.562-35.562V55.96z M302.518,475.545v16.057H61.541v-16.057H302.518z M96.471,455.147l9.068-18.807
			H258.52l9.068,18.807H96.471z M267.996,415.94H96.062v-6.427h171.934V415.94z M255.059,389.115H109.002v-16.057h146.057V389.115z
			 M255.058,273.442v79.218H109.002v-79.218c0-17.392,6.168-33.93,17.067-46.923v29.968c0,30.857,25.103,55.96,55.96,55.96
			c30.857,0,55.96-25.103,55.96-55.96v-29.951C248.882,239.542,255.058,256.099,255.058,273.442z M391.846,59.235
			c0-11.923,9.7-21.623,21.623-21.623c11.923,0,21.624,9.701,21.624,21.623s-9.7,21.624-21.624,21.624
			C401.546,80.859,391.846,71.159,391.846,59.235z M388.471,263.139h-11.624V251.92h11.624V263.139z M450.459,263.139h-12.012
			V251.92h12.012V263.139z M450.459,231.522h-12.012v-22.731c0-5.633-4.566-10.199-10.199-10.199h-29.578
			c-5.633,0-10.199,4.566-10.199,10.199v22.731h-11.624v-34.634c0-20.294,16.512-36.806,36.806-36.806s36.806,16.511,36.806,36.806
			V231.522z"/>
	</g>
</g>
</svg>